<svg t="1719545106327" class="icon" viewBox="0 0 1024 1024" version="1.1" xmlns="http://www.w3.org/2000/svg" p-id="25969" width="43" height="43"><path d="M822.272 128C862.848 128 896 161.152 896 201.728v620.544c0 40.576-33.152 73.728-73.728 73.728H201.728A73.92 73.92 0 0 1 128 822.272V201.728C128 161.152 161.152 128 201.728 128zM566.592 384.32c-17.536 4.48-33.728 13.12-50.624 19.52 0.384 5.312 2.56 10.24 3.264 15.488 15.936 83.2 24.512 167.488 32.064 251.648 11.968 0.384 23.936 0.128 35.84-1.408 29.056-3.008 58.368-9.856 83.584-25.216 9.728-6.016 19.072-13.44 24.832-23.488 3.584-6.912 5.696-16.192 0.64-22.912-6.016-7.616-14.848-12.16-23.424-16.32-15.488-7.04-32-11.712-48.64-14.72a149.568 149.568 0 0 0-49.408-1.472c-6.528-59.392-10.752-119.296-7.68-179.072l-0.448-2.048z m-323.52-0.064c-6.144 0.64-11.84 3.52-17.6 5.76-11.008 4.8-22.016 9.472-33.216 13.888 18.304 88 27.136 177.728 35.328 267.072 27.968 0.832 56.192-2.688 83.072-10.56a143.36 143.36 0 0 0 48.96-25.152c8.384-7.36 16.384-17.28 15.744-29.056 0.128-5.568-3.968-9.984-7.936-13.44a94.4 94.4 0 0 0-24.384-13.76c-29.12-11.2-60.928-18.176-92.096-13.568a1275.392 1275.392 0 0 1-8.512-157.888c-0.064-7.744 1.408-15.616 0.64-23.296z m261.824 151.68c-11.264-3.456-23.36-1.472-34.88-0.64 3.136 39.808 7.104 79.552 10.88 119.296 8.64 0.256 17.28-0.32 25.856-0.512-0.384-39.36 0.768-78.848-1.856-118.08z m323.712 0c-11.264-3.328-23.424-1.792-34.944-0.64 3.264 39.744 7.232 79.552 11.008 119.296 8.704 0.32 17.28-0.448 26.048-0.32-0.96-39.424 0.64-78.976-2.112-118.336z m-422.4-5.312c-10.368-1.984-21.056 0.64-31.36 2.496-1.088 0.512-3.648 0.128-3.392 1.92 7.424 38.784 15.168 77.568 22.784 116.288 8.64-1.408 17.536-1.6 26.176-2.944-3.776-34.048-6.592-68.16-11.264-102.08-0.896-5.248-1.344-10.56-2.88-15.68z m323.84-0.192c-11.52-1.792-23.296 1.152-34.56 3.648-0.192 3.456 0.896 6.784 1.536 10.176 6.784 35.712 14.016 71.424 20.928 107.136 8.704-1.408 17.536-1.792 26.24-2.944-3.456-33.664-6.464-67.392-11.008-100.928-0.832-5.696-1.472-11.52-3.072-17.088z m-132.8 63.168c11.392 2.816 22.208 7.36 33.216 11.52 4.992 2.112 10.432 3.648 15.04 6.656-3.008 3.904-7.296 6.528-11.072 9.6-9.984 7.552-19.904 15.168-30.272 22.144-2.688-13.888-3.392-28.16-6.08-42.048-0.448-2.56-0.896-5.248-0.832-7.872z m-323.712 0c13.248 3.456 25.92 8.704 38.656 13.696 3.2 1.472 6.72 2.304 9.6 4.48a32.256 32.256 0 0 1-6.336 5.952c-11.52 8.704-23.04 17.408-34.944 25.536-2.56-16.512-5.12-33.088-7.04-49.664zM437.12 416l-3.328 0.192c-8.32 0.64-16.704 1.408-24.96 3.072 13.696 72.768 20.48 146.624 27.584 220.16 8.32 0.448 16.576 0.256 24.832 1.088a8818.112 8818.112 0 0 1-17.536-223.36 22.208 22.208 0 0 0-9.92-0.96z m330.24 1.28c-11.456-2.432-23.424 0.32-34.816 1.984 13.824 72.704 20.48 146.624 27.648 220.16 8.256 0.448 16.512 0.256 24.768 1.088a9227.2 9227.2 0 0 1-17.6-223.232z m-285.248 58.24c-4.992-0.768-10.176 0.448-15.232 0.448 0.704 14.912 2.304 29.76 3.136 44.736 4.032-0.896 8.256-0.192 12.16-1.472 1.6-14.528 0.192-29.12 0-43.648z m323.904-0.128c-5.12-0.64-10.304 0.32-15.424 0.448l3.2 44.8 11.968-1.088c2.048-14.592 0.32-29.44 0.256-44.16zM496.384 474.88h-8.448c0.96 14.72 0.32 29.568 1.536 44.352 5.12 0.576 10.176 1.152 15.296 0.768-0.256-14.72-0.192-29.44 0-44.16a76.16 76.16 0 0 0-16.832-1.024z m315.264-0.064c1.024 14.848 0.256 29.824 1.728 44.672 5.056 0.128 10.112 0.96 15.104 0.512-0.192-14.72-0.128-29.44 0.064-44.16a78.272 78.272 0 0 0-16.896-1.024z m-434.752-1.92c-4.992 0.064-9.984 1.216-14.976 1.984 2.304 14.848 5.44 29.632 8.064 44.48 4.096-0.832 8.128-1.984 12.224-2.688 0-14.72-2.944-29.312-5.312-43.776z m323.776 0c-5.12 0.064-10.048 1.216-14.976 1.984 2.304 14.848 5.44 29.632 8 44.48 4.096-0.832 8.064-1.92 12.16-2.688a273.792 273.792 0 0 0-5.184-43.776z m-301.184-1.984a33.024 33.024 0 0 0-16.576-0.128c1.856 15.168 3.648 30.272 5.76 45.376 5.12-0.64 10.24-0.768 15.36-1.024-1.024-14.72-2.944-29.44-4.48-44.224z m322.048-0.64c-4.864-0.384-10.112-0.96-14.848 0.576 1.792 15.104 3.648 30.208 5.76 45.312 5.12-0.64 10.24-0.768 15.36-1.024-0.896-13.504-2.944-26.944-4.032-40.448-0.32-1.6 0.128-4.416-2.24-4.352z" fill="#f9729a" p-id="25970"></path></svg>