<svg t="1719544083270" class="icon" viewBox="0 0 1024 1024" version="1.1" xmlns="http://www.w3.org/2000/svg" p-id="22868" width="43" height="43"><path d="M222.087529 515.915294c0-32.527059 5.481412-63.698824 15.179295-92.973176l-170.285177-128.90353A496.941176 496.941176 0 0 0 15.058824 515.945412c0 79.721412 18.672941 154.955294 51.802352 221.726117l170.255059-129.114353a293.767529 293.767529 0 0 1-15.028706-92.611764" fill="#FBBC05" p-id="22869"></path><path d="M521.246118 219.979294a294.460235 294.460235 0 0 1 186.337882 65.957647l147.245176-145.648941C765.108706 62.885647 650.089412 15.058824 521.246118 15.058824 321.204706 15.058824 149.293176 128.421647 66.981647 294.038588l170.405647 128.90353c39.243294-118.061176 151.100235-202.992941 283.919059-202.992942" fill="#EA4335" p-id="22870"></path><path d="M523.414588 805.315765c-133.511529 0-245.940706-84.359529-285.394823-201.728l-171.188706 128.12047C149.564235 896.301176 322.349176 1008.941176 523.444706 1008.941176c124.024471 0 242.447059-43.128471 331.38447-124.054588l-162.514823-123.090823c-45.808941 28.310588-103.574588 43.550118-168.929882 43.550117" fill="#34A853" p-id="22871"></path><path d="M1008.941176 511.216941c0-29.394824-4.638118-61.108706-11.565176-90.503529H523.354353v192.301176h272.835765c-13.613176 65.596235-50.718118 115.983059-103.875765 148.781177l162.484706 123.090823c93.394824-84.901647 154.142118-211.425882 154.142117-373.669647" fill="#4285F4" p-id="22872"></path></svg>