<svg t="1719545165065" class="icon" viewBox="0 0 1024 1024" version="1.1" xmlns="http://www.w3.org/2000/svg" p-id="28660" width="43" height="43"><path d="M128 0h768q128 0 128 128v768q0 128-128 128H128Q0 1024 0 896V128Q0 0 128 0z" fill="#F53415" p-id="28661"></path><path d="M471.253 201.173l-37.333 93.654 112.213 112.426h168.534l64-54.4s9.6-17.92 18.133-37.973l-13.013-56.96-11.734-7.467-117.546-11.733-57.174-71.467z" fill="#414141" p-id="28662"></path><path d="M797.867 155.093z m-142.507 0h142.507v0.427H655.36z" fill="#A6A6A7" p-id="28663"></path><path d="M655.36 155.52h142.507v0.427H655.36z" fill="#A5A5A6" p-id="28664"></path><path d="M655.36 155.947h142.507v0.426H655.36z" fill="#A4A4A5" p-id="28665"></path><path d="M655.36 156.373h142.507v0.427H655.36z" fill="#A3A3A4" p-id="28666"></path><path d="M655.36 156.8h142.507v0.427H655.36z" fill="#A2A2A3" p-id="28667"></path><path d="M655.36 157.227h142.507v0.426H655.36z" fill="#A1A1A2" p-id="28668"></path><path d="M655.36 157.653h142.507v0.427H655.36z" fill="#A0A0A1" p-id="28669"></path><path d="M655.36 158.08h142.507v0.427H655.36z" fill="#9F9FA0" p-id="28670"></path><path d="M655.36 158.507h142.507v0.426H655.36z" fill="#9E9E9F" p-id="28671"></path><path d="M655.36 158.933h142.507v0.427H655.36z" fill="#9D9D9E" p-id="28672"></path><path d="M655.36 159.36h142.507v0.427H655.36z" fill="#9C9C9D" p-id="28673"></path><path d="M655.36 159.787h142.507v0.426H655.36z" fill="#9B9B9C" p-id="28674"></path><path d="M655.36 160h142.507v0.427H655.36z" fill="#9A9A9B" p-id="28675"></path><path d="M655.36 160.427h142.507v0.426H655.36z" fill="#99999A" p-id="28676"></path><path d="M655.36 160.853h142.507v0.427H655.36z" fill="#989899" p-id="28677"></path><path d="M655.36 161.28h142.507v0.427H655.36z" fill="#979798" p-id="28678"></path><path d="M655.36 161.707h142.507v0.426H655.36z" fill="#969697" p-id="28679"></path><path d="M655.36 162.133h142.507v0.427H655.36z" fill="#969596" p-id="28680"></path><path d="M655.36 162.56h142.507v0.427H655.36z" fill="#959495" p-id="28681"></path><path d="M655.36 162.987h142.507v0.426H655.36z" fill="#949394" p-id="28682"></path><path d="M655.36 163.413h142.507v0.427H655.36z" fill="#939293" p-id="28683"></path><path d="M655.36 163.84h142.507v0.427H655.36z" fill="#929192" p-id="28684"></path><path d="M655.36 164.267h142.507v0.426H655.36z" fill="#919091" p-id="28685"></path><path d="M655.36 164.693h142.507v0.427H655.36z" fill="#908F90" p-id="28686"></path><path d="M655.36 165.12h142.507v0.427H655.36z" fill="#8F8E8F" p-id="28687"></path><path d="M655.36 165.547h142.507v0.426H655.36z" fill="#8E8D8E" p-id="28688"></path><path d="M655.36 165.973h142.507v0.427H655.36z" fill="#8D8C8D" p-id="28689"></path><path d="M655.36 166.4h142.507v0.427H655.36z" fill="#8C8B8C" p-id="28690"></path><path d="M655.36 166.827h142.507v0.426H655.36z" fill="#8B8A8B" p-id="28691"></path><path d="M655.36 167.04h142.507v0.427H655.36z" fill="#8A898A" p-id="28692"></path><path d="M655.36 167.467h142.507v0.426H655.36z" fill="#898889" p-id="28693"></path><path d="M655.36 167.893h142.507v0.427H655.36z" fill="#888788" p-id="28694"></path><path d="M655.36 168.32h142.507v0.427H655.36z" fill="#878687" p-id="28695"></path><path d="M655.36 168.747h142.507v0.426H655.36z" fill="#868586" p-id="28696"></path><path d="M655.36 169.173h142.507v0.427H655.36z" fill="#858485" p-id="28697"></path><path d="M655.36 169.6h142.507v0.427H655.36z" fill="#848384" p-id="28698"></path><path d="M655.36 170.027h142.507v0.426H655.36z" fill="#838283" p-id="28699"></path><path d="M655.36 170.453h142.507v0.427H655.36z" fill="#828182" p-id="28700"></path><path d="M655.36 170.88h142.507v0.427H655.36z" fill="#818081" p-id="28701"></path><path d="M655.36 171.307h142.507v0.426H655.36z" fill="#807F80" p-id="28702"></path><path d="M655.36 171.733h142.507v0.427H655.36z" fill="#7F7E7F" p-id="28703"></path><path d="M655.36 172.16h142.507v0.427H655.36z" fill="#7E7D7E" p-id="28704"></path><path d="M655.36 172.587h142.507v0.426H655.36z" fill="#7D7C7D" p-id="28705"></path><path d="M655.36 173.013h142.507v0.427H655.36z" fill="#7C7B7C" p-id="28706"></path><path d="M655.36 173.44h142.507v0.427H655.36z" fill="#7B7A7B" p-id="28707"></path><path d="M655.36 173.653h142.507v0.427H655.36z" fill="#7A797A" p-id="28708"></path><path d="M655.36 174.08h142.507v0.427H655.36z" fill="#797879" p-id="28709"></path><path d="M655.36 174.507h142.507v0.426H655.36z" fill="#787778" p-id="28710"></path><path d="M655.36 174.933h142.507v0.427H655.36z" fill="#777677" p-id="28711"></path><path d="M655.36 175.36h142.507v0.427H655.36z" fill="#767576" p-id="28712"></path><path d="M655.36 175.787h142.507v0.426H655.36z" fill="#767475" p-id="28713"></path><path d="M655.36 176.213h142.507v0.427H655.36z" fill="#757374" p-id="28714"></path><path d="M655.36 176.64h142.507v0.427H655.36z" fill="#747273" p-id="28715"></path><path d="M655.36 177.067h142.507v0.426H655.36z" fill="#737172" p-id="28716"></path><path d="M655.36 177.493h142.507v0.427H655.36z" fill="#727071" p-id="28717"></path><path d="M655.36 177.92h142.507v0.427H655.36z" fill="#716F70" p-id="28718"></path><path d="M655.36 178.347h142.507v0.426H655.36z" fill="#706E6F" p-id="28719"></path><path d="M655.36 178.773h142.507v0.427H655.36z" fill="#6F6D6E" p-id="28720"></path><path d="M655.36 179.2h142.507v0.427H655.36z" fill="#6E6C6D" p-id="28721"></path><path d="M655.36 179.627h142.507v0.426H655.36z" fill="#6D6B6C" p-id="28722"></path><path d="M655.36 180.053h142.507v0.427H655.36z" fill="#6C6A6B" p-id="28723"></path><path d="M655.36 180.48h142.507v0.427H655.36z" fill="#6B696A" p-id="28724"></path><path d="M655.36 180.693h142.507v0.427H655.36z" fill="#6A6869" p-id="28725"></path><path d="M655.36 181.12h142.507v0.427H655.36z" fill="#696768" p-id="28726"></path><path d="M655.36 181.547h142.507v0.426H655.36z" fill="#686667" p-id="28727"></path><path d="M655.36 181.973h142.507v0.427H655.36z" fill="#676566" p-id="28728"></path><path d="M655.36 182.4h142.507v0.427H655.36z" fill="#666465" p-id="28729"></path><path d="M655.36 182.827h142.507v0.426H655.36z" fill="#656364" p-id="28730"></path><path d="M655.36 183.253h142.507v0.427H655.36z" fill="#646263" p-id="28731"></path><path d="M655.36 183.68h142.507v0.427H655.36z" fill="#636162" p-id="28732"></path><path d="M655.36 184.107h142.507v0.426H655.36z" fill="#626061" p-id="28733"></path><path d="M655.36 184.533h142.507v0.427H655.36z" fill="#615F60" p-id="28734"></path><path d="M655.36 184.96h142.507v0.427H655.36z" fill="#605E5F" p-id="28735"></path><path d="M655.36 185.387h142.507v0.426H655.36z" fill="#5F5D5E" p-id="28736"></path><path d="M655.36 185.813h142.507v0.427H655.36z" fill="#5E5C5D" p-id="28737"></path><path d="M655.36 186.24h142.507v0.427H655.36z" fill="#5D5B5C" p-id="28738"></path><path d="M655.36 186.667h142.507v0.426H655.36z" fill="#5C5A5B" p-id="28739"></path><path d="M655.36 187.093h142.507v0.427H655.36z" fill="#5B595A" p-id="28740"></path><path d="M655.36 187.52h142.507v0.427H655.36z" fill="#5A5859" p-id="28741"></path><path d="M655.36 187.733h142.507v0.427H655.36z" fill="#595758" p-id="28742"></path><path d="M655.36 188.16h142.507v0.427H655.36z" fill="#585657" p-id="28743"></path><path d="M655.36 188.587h142.507v0.426H655.36z" fill="#575556" p-id="28744"></path><path d="M655.36 189.013h142.507v0.427H655.36z" fill="#565455" p-id="28745"></path><path d="M655.36 189.44h142.507v0.427H655.36z" fill="#565454" p-id="28746"></path><path d="M655.36 189.867h142.507v0.426H655.36z" fill="#555352" p-id="28747"></path><path d="M655.36 190.293h142.507v0.427H655.36z" fill="#545251" p-id="28748"></path><path d="M655.36 190.72h142.507v0.427H655.36z" fill="#535150" p-id="28749"></path><path d="M655.36 191.147h142.507v0.426H655.36z" fill="#52504F" p-id="28750"></path><path d="M655.36 191.573h142.507V192H655.36z" fill="#514F4E" p-id="28751"></path><path d="M655.36 192h142.507v0.427H655.36z" fill="#504E4D" p-id="28752"></path><path d="M655.36 192.427h142.507v0.426H655.36z" fill="#4F4D4C" p-id="28753"></path><path d="M655.36 192.853h142.507v0.427H655.36z" fill="#4E4C4B" p-id="28754"></path><path d="M655.36 193.28h142.507v0.427H655.36z" fill="#4D4B4A" p-id="28755"></path><path d="M655.36 193.707h142.507v0.426H655.36z" fill="#4C4A49" p-id="28756"></path><path d="M655.36 194.133h142.507v0.427H655.36z" fill="#4B4948" p-id="28757"></path><path d="M655.36 194.56h142.507v0.427H655.36z" fill="#4A4847" p-id="28758"></path><path d="M655.36 194.773h142.507v0.427H655.36z" fill="#494746" p-id="28759"></path><path d="M655.36 195.2h142.507v0.427H655.36z" fill="#484645" p-id="28760"></path><path d="M655.36 195.627h142.507v0.426H655.36z" fill="#474544" p-id="28761"></path><path d="M655.36 196.053h142.507v0.427H655.36z" fill="#464443" p-id="28762"></path><path d="M655.36 196.48h142.507v0.427H655.36z" fill="#454342" p-id="28763"></path><path d="M655.36 196.907h142.507v0.426H655.36z" fill="#444241" p-id="28764"></path><path d="M655.36 197.333h142.507v0.427H655.36z" fill="#434140" p-id="28765"></path><path d="M655.36 197.76h142.507v0.427H655.36z" fill="#42403F" p-id="28766"></path><path d="M655.36 198.187h142.507v0.426H655.36z" fill="#413F3E" p-id="28767"></path><path d="M655.36 198.613h142.507v0.427H655.36z" fill="#403E3D" p-id="28768"></path><path d="M655.36 199.04h142.507v0.427H655.36z" fill="#3F3D3C" p-id="28769"></path><path d="M655.36 199.467h142.507v0.426H655.36z" fill="#3E3C3B" p-id="28770"></path><path d="M655.36 199.893h142.507v0.427H655.36z" fill="#3D3B3A" p-id="28771"></path><path d="M655.36 200.32h142.507v0.427H655.36z" fill="#3C3A39" p-id="28772"></path><path d="M655.36 200.747h142.507v0.426H655.36z" fill="#3B3938" p-id="28773"></path><path d="M655.36 201.173h142.507v0.427H655.36z" fill="#3A3837" p-id="28774"></path><path d="M655.36 201.6h142.507v0.427H655.36z" fill="#393736" p-id="28775"></path><path d="M655.36 201.813h142.507v0.427H655.36z" fill="#383635" p-id="28776"></path><path d="M655.36 202.24h142.507v0.427H655.36z" fill="#373534" p-id="28777"></path><path d="M655.36 202.667h142.507v0.426H655.36z" fill="#363433" p-id="28778"></path><path d="M655.36 203.093h142.507v0.427H655.36z" fill="#353332" p-id="28779"></path><path d="M655.36 203.52h142.507v0.427H655.36z" fill="#353231" p-id="28780"></path><path d="M655.36 203.947h142.507v0.426H655.36z" fill="#343130" p-id="28781"></path><path d="M655.36 204.373h142.507v0.427H655.36z" fill="#33302F" p-id="28782"></path><path d="M655.36 204.8h142.507v0.427H655.36z" fill="#322F2E" p-id="28783"></path><path d="M655.36 205.227h142.507v0.426H655.36z" fill="#312E2D" p-id="28784"></path><path d="M655.36 205.653h142.507v0.427H655.36z" fill="#302D2C" p-id="28785"></path><path d="M655.36 206.08h142.507v0.427H655.36z" fill="#2F2C2B" p-id="28786"></path><path d="M655.36 206.507h142.507v0.426H655.36z" fill="#2E2B2A" p-id="28787"></path><path d="M655.36 206.933h142.507v0.427H655.36z" fill="#2D2A29" p-id="28788"></path><path d="M655.36 207.36h142.507v0.427H655.36z" fill="#2C2928" p-id="28789"></path><path d="M655.36 207.787h142.507v0.426H655.36z" fill="#2B2827" p-id="28790"></path><path d="M655.36 208.213h142.507v0.427H655.36z" fill="#2A2726" p-id="28791"></path><path d="M655.36 208.64h142.507v0.427H655.36z" fill="#292625" p-id="28792"></path><path d="M655.36 208.853h142.507v0.427H655.36z" fill="#282524" p-id="28793"></path><path d="M655.36 209.28h142.507v0.427H655.36z" fill="#272423" p-id="28794"></path><path d="M655.36 209.707h142.507v0.426H655.36z" fill="#262322" p-id="28795"></path><path d="M655.36 210.133h142.507v0.427H655.36z" fill="#252221" p-id="28796"></path><path d="M655.36 210.56h142.507v0.427H655.36z" fill="#242120" p-id="28797"></path><path d="M655.36 210.987h142.507v0.426H655.36z" fill="#23201F" p-id="28798"></path><path d="M655.36 211.413h142.507v0.427H655.36z" fill="#221F1E" p-id="28799"></path><path d="M655.36 211.84h142.507v0.427H655.36z" fill="#211E1D" p-id="28800"></path><path d="M655.36 212.267h142.507v0.426H655.36z" fill="#201D1C" p-id="28801"></path><path d="M655.36 212.693h142.507v0.427H655.36z" fill="#1F1C1B" p-id="28802"></path><path d="M655.36 213.12h142.507v0.427H655.36z" fill="#1E1B1A" p-id="28803"></path><path d="M655.36 213.547h142.507v0.426H655.36z" fill="#1D1A19" p-id="28804"></path><path d="M655.36 213.973h142.507v0.427H655.36z" fill="#1C1918" p-id="28805"></path><path d="M655.36 214.4h142.507v0.427H655.36z" fill="#1B1817" p-id="28806"></path><path d="M655.36 214.827h142.507v0.426H655.36z" fill="#1A1716" p-id="28807"></path><path d="M655.36 215.253h142.507v0.427H655.36z" fill="#191615" p-id="28808"></path><path d="M655.36 215.467h142.507v0.426H655.36z" fill="#181514" p-id="28809"></path><path d="M655.36 215.893h142.507v0.427H655.36z" fill="#171413" p-id="28810"></path><path d="M655.36 216.32h142.507v0.427H655.36z" fill="#161312" p-id="28811"></path><path d="M655.36 216.747h142.507v0.426H655.36z" fill="#151211" p-id="28812"></path><path d="M655.36 217.173h142.507v0.427H655.36z" fill="#151110" p-id="28813"></path><path d="M655.36 217.6h142.507v0.427H655.36z" fill="#14100F" p-id="28814"></path><path d="M655.36 218.027h142.507v0.426H655.36z" fill="#130F0E" p-id="28815"></path><path d="M655.36 218.453h142.507v0.427H655.36z" fill="#120E0D" p-id="28816"></path><path d="M655.36 218.88h142.507v0.427H655.36z" fill="#110D0C" p-id="28817"></path><path d="M655.36 219.307h142.507v0.426H655.36z" fill="#100C0B" p-id="28818"></path><path d="M655.36 219.733h142.507v0.427H655.36z" fill="#0F0B0A" p-id="28819"></path><path d="M655.36 220.16h142.507v0.427H655.36z" fill="#0E0A09" p-id="28820"></path><path d="M655.36 220.587h142.507v0.426H655.36z" fill="#0D0908" p-id="28821"></path><path d="M655.36 221.013h142.507v0.427H655.36z" fill="#0C0807" p-id="28822"></path><path d="M655.36 221.44h142.507v0.427H655.36z" fill="#0B0706" p-id="28823"></path><path d="M655.36 221.867h142.507v0.426H655.36z" fill="#0A0605" p-id="28824"></path><path d="M655.36 222.293h142.507v0.427H655.36z" fill="#090504" p-id="28825"></path><path d="M655.36 222.507h142.507v0.426H655.36z" fill="#080403" p-id="28826"></path><path d="M655.36 222.933h142.507v0.427H655.36z" fill="#070302" p-id="28827"></path><path d="M655.36 223.36h142.507v0.427H655.36z" fill="#060201" p-id="28828"></path><path d="M655.36 223.787h142.507v0.426H655.36z m0 0.426z" fill="#050100" p-id="28829"></path><path d="M269.44 314.027c0 13.653 2.56 27.52 2.987 41.386a67.627 67.627 0 0 1-30.08 61.014 147.627 147.627 0 0 1-52.907 24.32 28.587 28.587 0 0 1-35.2-35.414 136.533 136.533 0 0 1 14.293-36.906 350.507 350.507 0 0 0 34.774-88.96 93.867 93.867 0 0 1 6.186-16.854 21.333 21.333 0 0 1 25.174-11.52A106.667 106.667 0 0 1 256 259.84c10.453 5.333 21.333 11.733 30.933 17.493 6.4-6.613 12.374-13.866 18.987-20.266A274.773 274.773 0 0 1 384 206.293a661.333 661.333 0 0 1 141.013-48.853 573.013 573.013 0 0 1 69.12-9.6c27.52-1.92 55.467-2.987 82.987-2.347a238.08 238.08 0 0 1 104.107 21.334A57.173 57.173 0 0 1 816.853 208a174.72 174.72 0 0 1 0 42.667 232.96 232.96 0 0 1-22.4 68.906 34.773 34.773 0 0 1-15.146 14.08 152.107 152.107 0 0 1-48 16.214 258.773 258.773 0 0 1-138.454-8.534 185.813 185.813 0 0 1-68.266-47.36 33.92 33.92 0 0 0-6.187-6.186c-2.773-1.28-7.04-2.347-8.96 0a10.027 10.027 0 0 0-2.56 8.32 21.333 21.333 0 0 0 5.547 8.96 202.24 202.24 0 0 0 104.533 61.226 265.173 265.173 0 0 0 145.92-5.333 53.333 53.333 0 0 0 8.107-3.2 37.76 37.76 0 0 1 8.746-3.2c-5.333 7.893-10.453 15.787-15.786 23.253a273.707 273.707 0 0 1-145.28 101.12 220.587 220.587 0 0 1-115.414 0A418.773 418.773 0 0 1 329.6 393.6a174.933 174.933 0 0 1-40.96-45.867 87.68 87.68 0 0 1-9.387-21.333c-1.706-6.187-4.053-10.24-9.386-11.733z m466.347-152.96c-7.467 0-15.147 0-22.4 2.133a64 64 0 0 0-31.36 12.8 11.947 11.947 0 0 0 1.92 21.333 53.76 53.76 0 0 0 11.52 4.48 142.507 142.507 0 0 0 54.613 1.494 110.293 110.293 0 0 0 27.307-7.467 15.147 15.147 0 0 0 10.453-14.933c0-7.04-6.187-9.6-11.307-12.16a98.773 98.773 0 0 0-40.746-7.467z m-213.334 82.986a17.92 17.92 0 0 0 19.2-17.066 18.133 18.133 0 0 0-19.2-17.28 17.28 17.28 0 1 0 0 34.346z m83.627 413.44h-14.507c-1.28 0-2.986-2.346-3.413-3.84-3.413-13.653-6.4-27.52-10.24-41.173a58.24 58.24 0 0 0-7.253-15.147 10.453 10.453 0 0 0-17.92-1.28 89.387 89.387 0 0 0-13.014 21.334 307.2 307.2 0 0 0-11.093 34.346c-1.493 4.694-2.987 7.254-8.32 6.4a78.293 78.293 0 0 0-10.027 0c0-20.053 1.494-39.253 2.347-60.16a75.947 75.947 0 0 0-11.093 5.547 215.893 215.893 0 0 0-18.134 16c-10.453 10.667-21.333 21.333-30.506 32.427-6.187 6.826-8.32 7.466-19.2 5.12l38.613-65.494a37.547 37.547 0 0 1-28.373-21.333 34.133 34.133 0 0 1 0-24.32c0 2.773 1.28 5.76 2.133 8.533a24.32 24.32 0 0 0 31.36 17.707 19.627 19.627 0 0 0 10.027-7.467c12.586-21.333 24.746-40.96 36.693-61.653a6.827 6.827 0 0 1 8.533-3.84 142.507 142.507 0 0 0 59.307 0c4.267-1.067 8.533-2.987 13.227-4.693V657.28z m-237.653 78.72c-1.92 5.334-11.52 6.614-49.494 6.614s-46.506 1.28-46.506 6.613 14.933 6.827 111.146 6.827 111.147 0 111.147-6.827-8.533-6.613-49.067-6.613-48.853-1.28-48.853-6.614-4.48-6.613-12.8-6.613a16.853 16.853 0 0 0-15.573 6.613z m208.853 0c-1.707 4.907-8.747 6.614-24.747 6.614s-21.333 1.92-21.333 6.613 4.907 6.827 17.92 6.827c9.813 0 17.707 0 17.707 2.133a242.133 242.133 0 0 1-13.227 29.013 181.76 181.76 0 0 0-13.44 30.934c0 2.773 16.427 4.48 42.667 4.48h42.666v35.626c0 30.72-1.28 36.48-8.96 40.96a18.133 18.133 0 0 0-8.746 11.947c0 9.813 27.52 2.347 39.04-11.093 8.533-9.387 9.813-16.427 9.813-44.374v-33.066h44.373c36.054 0 44.587-1.28 44.587-6.614s-8.96-6.613-42.667-7.466l-43.733-1.494-3.627-17.92c-1.28-18.346-1.706-18.773-16.853-18.773s-15.147 0-15.147 20.053v20.054H602.24a71.467 71.467 0 0 1-24.533-2.774 68.053 68.053 0 0 1 9.386-26.666l11.52-23.894h77.014c65.28 0 77.013 0 77.013-6.826s-11.307-6.614-73.387-6.614-72.96 0-70.826-6.613 0-6.613-12.8-6.613-16.427 2.56-18.347 6.613z m-296.96 58.24a138.453 138.453 0 0 0 0 26.667 350.507 350.507 0 0 0 45.867 1.707h42.666v24.106c0 34.134-4.48 50.56-13.653 53.76a11.733 11.733 0 0 0-8.533 9.814c0 9.813 25.386 4.48 38.613-8.534 8.96-8.32 10.24-13.653 10.24-44.373v-34.773h88.96v-53.334H282.027z m177.92 0l-1.28 12.374H310.187l-1.28-12.374-1.494-11.946H459.52z m-161.067 64a200.32 200.32 0 0 1-16.853 42.667l-8.96 14.72h9.387c10.24 0 32-26.667 45.44-55.68 11.52-24.747 10.666-28.8-6.187-28.8s-15.147 0-22.827 27.52z m135.254-21.333a190.08 190.08 0 0 0 33.28 64 39.253 39.253 0 0 0 20.053 13.867c7.467 0 7.467-1.28-2.133-19.2a149.333 149.333 0 0 1-16-42.667c-5.334-21.333-5.974-23.04-21.334-23.04-10.24 0-14.72 2.133-14.72 6.613z m128-3.413a150.613 150.613 0 0 0-5.334 21.333A151.467 151.467 0 0 1 540.8 896c-8.32 16.427-9.173 21.333-4.267 21.333 12.374 0 43.947-43.946 53.334-74.666 2.986-8.96 1.706-9.814-12.587-9.814-8.32 0-16.427 1.28-17.28 3.2z m125.866-1.494a256 256 0 0 0 10.667 26.24c11.52 26.24 36.053 56.534 45.44 56.534s7.893-2.134-1.493-16a186.24 186.24 0 0 1-15.574-37.334c-7.466-27.093-7.893-27.733-23.466-29.013H685.44z" fill="#FFFFFF" p-id="28830"></path></svg>