<svg t="1722999720094" class="icon" viewBox="0 0 1024 1024" version="1.1" xmlns="http://www.w3.org/2000/svg" p-id="4540" width="43" height="43"><path d="M298.666667 234.666667c0-26.046667 13.273333-50.786667 38.38-71.546667 19.54-16.153333 46.053333-29.666667 77.186666-39.38a129.22 129.22 0 0 1 41.453334-54.84 128 128 0 0 1 155.293333 0 129.22 129.22 0 0 1 41.453333 54.84c31.133333 9.713333 57.653333 23.226667 77.186667 39.38C754.726667 183.88 768 208.62 768 234.666667a21.333333 21.333333 0 0 1-21.333333 21.333333H320a21.333333 21.333333 0 0 1-21.333333-21.333333z m640-10.666667v704a53.393333 53.393333 0 0 1-53.333334 53.333333H181.333333a53.393333 53.393333 0 0 1-53.333333-53.333333V224a53.393333 53.393333 0 0 1 53.333333-53.333333h92.986667c-0.666667 1.126667-1.333333 2.266667-2 3.406666C261.493333 193.22 256 213.606667 256 234.666667a64 64 0 0 0 64 64h426.666667a64 64 0 0 0 64-64c0-21.06-5.493333-41.446667-16.32-60.593334-0.666667-1.14-1.333333-2.28-2-3.406666H885.333333a53.393333 53.393333 0 0 1 53.333334 53.333333z m-256 522.666667a21.333333 21.333333 0 0 0-21.333334-21.333334H320a21.333333 21.333333 0 0 0 0 42.666667h341.333333a21.333333 21.333333 0 0 0 21.333334-21.333333zM320 597.333333h256a21.333333 21.333333 0 0 0 0-42.666666H320a21.333333 21.333333 0 0 0 0 42.666666z m448-21.333333a21.333333 21.333333 0 0 0-21.333333-21.333333h-42.666667a21.333333 21.333333 0 0 0 0 42.666666h42.666667a21.333333 21.333333 0 0 0 21.333333-21.333333z m0-170.666667a21.333333 21.333333 0 0 0-21.333333-21.333333H320a21.333333 21.333333 0 0 0 0 42.666667h426.666667a21.333333 21.333333 0 0 0 21.333333-21.333334z" fill="#5C5C66" p-id="4541"></path></svg>