<svg t="1722999788701" class="icon" viewBox="0 0 1024 1024" version="1.1" xmlns="http://www.w3.org/2000/svg" p-id="5586" width="43" height="43"><path d="M365.565 72.691h-195.248c-53.691 0-97.626 43.93-97.626 97.626v195.248c0 53.691 43.93 97.626 97.626 97.626h195.248c53.691 0 97.626-43.93 97.626-97.626v-195.248c0-53.691-43.93-97.626-97.626-97.626zM365.565 560.812h-195.248c-53.691 0-97.626 43.93-97.626 97.626v195.248c0 53.691 43.93 97.626 97.626 97.626h195.248c53.691 0 97.626-43.93 97.626-97.626v-195.248c0-53.691-43.93-97.626-97.626-97.626zM853.684 560.812h-195.248c-53.691 0-97.626 43.93-97.626 97.626v195.248c0 53.691 43.93 97.626 97.626 97.626h195.248c53.691 0 97.626-43.93 97.626-97.626v-195.248c0-53.691-43.93-97.626-97.626-97.626zM970.833 194.721l-141.554-141.554c-39.047-39.047-102.507-39.047-141.554 0l-141.554 141.554c-39.047 39.047-39.047 102.507 0 141.554l141.554 141.554c39.047 39.047 102.507 39.047 141.554 0l141.554-141.554c39.047-34.17 39.047-97.626 0-141.554zM931.783 302.108l-141.554 141.554c-19.527 19.527-53.691 19.527-73.219 0l-141.554-141.554c-19.527-19.527-19.527-53.691 0-73.219l141.554-141.554c19.527-19.527 53.691-19.527 73.219 0l141.554 141.554c19.527 24.406 19.527 53.691 0 73.219z" fill="" p-id="5587"></path></svg>