<svg t="1722999951942" class="icon" viewBox="0 0 1024 1024" version="1.1" xmlns="http://www.w3.org/2000/svg" p-id="9565" width="43" height="43"><path d="M695.556 721.524l-4.543 4.443c-41.108 35.736-89.276 62.763-142.213 79.4C509.219 817.733 468.427 824 427.765 824c-39.116 0-78.064-5.651-115.969-17.104-13.038-3.972-20.396-17.719-16.41-30.682 3.986-13 17.807-20.311 30.827-16.339 67.968 20.443 139.755 19.995 207.704-1.398 69.496-21.823 129.641-64.125 173.655-122.15 56.457-74.346 80.392-166.131 67.503-258.346-12.871-92.4-61.04-174.076-135.769-230.274-74.692-56.197-166.893-80.015-259.56-67.202-92.798 12.833-174.866 60.786-231.323 135.15-46.64 61.383-71.172 134.517-70.874 211.492 0.298 74.495 24.997 148.263 69.496 207.5 8.12 11.005 5.83 26.43-5.067 34.525-11.045 8.076-26.542 5.8-34.682-5.055-50.758-67.65-78.995-151.769-79.293-236.671-0.317-87.794 27.604-171.167 80.988-241.41 64.429-84.902 158.157-139.57 264.012-154.23 105.854-14.493 211.094 12.683 296.217 76.807 85.31 64.125 140.22 157.44 154.954 262.803 14.566 105.345-12.74 210.093-77.17 294.846-4.389 5.898-8.984 11.589-13.693 17.123l256.317 268.457c10.199 10.677 9.751 27.7-0.951 37.837-10.74 10.136-27.838 9.688-38.018-0.97L695.556 721.523zM406.33 694c-0.764 0-1.547 0-2.312-0.15-50.18-4.568-98.088-22.899-138.464-53.276-36.853-27.637-66.007-64.28-84.443-106.107-5.517-12.364 0.15-27.021 12.75-32.373 12.434-5.483 27.179 0.168 32.548 12.68 15.043 34.033 38.828 63.963 68.915 86.564 33.013 24.877 72.177 39.832 113.15 43.506 13.682 1.23 23.655 13.128 22.424 26.722C429.817 684.378 419.08 694 406.33 694z" fill="#424242" p-id="9566"></path></svg>