<svg t="1723702216696" class="icon" viewBox="0 0 1024 1024" version="1.1" xmlns="http://www.w3.org/2000/svg" p-id="13160" width="43" height="43"><path d="M507.733333 942.933333v-358.4c0-29.866667-25.6-55.466667-55.466666-55.466666H93.866667c-29.866667 0-55.466667 25.6-55.466667 55.466666v358.4c0 29.866667 25.6 55.466667 55.466667 55.466667h362.666666c25.6 0 51.2-25.6 51.2-55.466667z" fill="#5B8EF8" p-id="13161"></path><path d="M755.2 4.266667c-136.533333 0-247.466667 115.2-247.466667 256s110.933333 256 247.466667 256h17.066667c136.533333 0 247.466667-115.2 247.466666-256s-110.933333-256-247.466666-256h-17.066667z" fill="#5CD8A8" p-id="13162"></path><path d="M1002.666667 665.6l-85.333334-115.2c-8.533333-12.8-25.6-12.8-34.133333 0l-85.333333 115.2c-8.533333 12.8 0 34.133333 17.066666 34.133333h68.266667c0 153.6-123.733333 277.333333-277.333333 277.333334h-21.333334c-12.8 0-21.333333 8.533333-21.333333 21.333333s8.533333 21.333333 21.333333 21.333333h21.333334c174.933333 0 320-140.8 320-320h59.733333c21.333333 0 29.866667-21.333333 17.066667-34.133333zM405.333333 4.266667c-170.666667 0-311.466667 136.533333-315.733333 302.933333H25.6c-17.066667 0-25.6 21.333333-17.066667 34.133333l85.333334 115.2c8.533333 12.8 25.6 12.8 34.133333 0L213.333333 341.333333c8.533333-12.8 0-34.133333-17.066666-34.133333H132.266667c8.533333-145.066667 128-260.266667 273.066666-260.266667 12.8 0 21.333333-8.533333 21.333334-21.333333S418.133333 4.266667 405.333333 4.266667z" fill="#60656F" p-id="13163"></path></svg>